<svg xmlns="http://www.w3.org/2000/svg" width="26" height="26" viewBox="0 0 26 26">
    <g fill="#5483bf" fill-rule="nonzero">
        <path d="M25.782 16.651V8.637a.397.397 0 0 0-.284-.38l-3.708-1.1c.287-.702.466-1.399.466-2.046A4.897 4.897 0 0 0 17.364.22a4.897 4.897 0 0 0-4.891 4.891c0 .647.179 1.344.466 2.046L9.344 8.224 1.436 5.877a.397.397 0 0 0-.509.38V22.299c0 .176.115.33.284.38l8.014 2.378.006.002.004.001a.388.388 0 0 0 .16.012l.012-.002a.403.403 0 0 0 .046-.01h.004l.003-.002 7.744-2.297a.395.395 0 0 0 .321 0l7.747 2.298a.396.396 0 0 0 .51-.38v-8.024-.003zm-.794-7.718v7.193l-7.227-2.144v-1.128c.517-.533 2.548-2.697 3.695-4.968l3.532 1.047zm-7.624-7.92a4.103 4.103 0 0 1 4.099 4.098c0 .645-.216 1.362-.55 2.089a.396.396 0 0 0-.041.086c-.956 2.017-2.805 4.085-3.508 4.833-.702-.747-2.55-2.812-3.505-4.829a.397.397 0 0 0-.044-.094c-.334-.725-.549-1.441-.549-2.085a4.103 4.103 0 0 1 4.098-4.098zm-.396 11.84v1.129L9.74 16.126V8.933l3.533-1.047c1.147 2.271 3.178 4.435 3.695 4.968zM1.72 14.81l2.74.813a.397.397 0 1 0 .226-.76l-2.966-.88V6.789l7.227 2.144v7.193l-2.74-.813a.396.396 0 1 0-.226.76l2.966.88v7.194L1.72 22.002V14.81zm16.041 7.193v-2.871a.397.397 0 1 0-.793 0v2.871L9.74 24.147v-7.193l7.228-2.145v2.735a.397.397 0 1 0 .793 0V14.81l7.227 2.145v7.193l-7.227-2.145z"/>
        <path d="M17.364 7.888a2.78 2.78 0 0 0 2.777-2.777 2.78 2.78 0 0 0-2.777-2.776 2.78 2.78 0 0 0-2.776 2.776 2.78 2.78 0 0 0 2.776 2.777zm0-4.76c1.094 0 1.984.89 1.984 1.983 0 1.094-.89 1.984-1.984 1.984a1.985 1.985 0 0 1-1.983-1.984c0-1.093.89-1.983 1.983-1.983z"/>
    </g>
</svg>
